<svg width="44" height="44" viewBox="0 0 44 44" fill="none" xmlns="http://www.w3.org/2000/svg">
<path fill-rule="evenodd" clip-rule="evenodd" d="M13.3079 1.04325C15.5561 0.939748 16.273 0.916748 22 0.916748C27.727 0.916748 28.4438 0.941665 30.6901 1.04325C32.9365 1.14483 34.4698 1.50325 35.8115 2.02266C37.2164 2.55358 38.491 3.3835 39.5451 4.45683C40.6185 5.50908 41.4465 6.78175 41.9755 8.18858C42.4968 9.53025 42.8533 11.0636 42.9568 13.3061C43.0603 15.5582 43.0833 16.275 43.0833 22.0001C43.0833 27.7271 43.0584 28.4439 42.9568 30.6922C42.8552 32.9347 42.4968 34.468 41.9755 35.8097C41.4464 37.2167 40.6171 38.4915 39.5451 39.5452C38.491 40.6186 37.2164 41.4466 35.8115 41.9756C34.4698 42.4969 32.9365 42.8534 30.694 42.9569C28.4438 43.0604 27.727 43.0834 22 43.0834C16.273 43.0834 15.5561 43.0585 13.3079 42.9569C11.0654 42.8553 9.53204 42.4969 8.19038 41.9756C6.78339 41.4465 5.50861 40.6171 4.45479 39.5452C3.38219 38.4924 2.55215 37.2182 2.02254 35.8116C1.50313 34.4699 1.14663 32.9366 1.04313 30.6941C0.939626 28.442 0.916626 27.7252 0.916626 22.0001C0.916626 16.2731 0.941543 15.5562 1.04313 13.3099C1.14471 11.0636 1.50313 9.53025 2.02254 8.18858C2.55293 6.7819 3.3836 5.50776 4.45671 4.45491C5.50904 3.38254 6.78253 2.55251 8.18846 2.02266C9.53013 1.50325 11.0635 1.14675 13.306 1.04325H13.3079ZM30.5195 4.83825C28.2962 4.73666 27.6292 4.71558 22 4.71558C16.3707 4.71558 15.7037 4.73666 13.4804 4.83825C11.4238 4.93216 10.3083 5.27525 9.56463 5.56466C8.58138 5.948 7.87796 6.40225 7.14004 7.14016C6.44055 7.82068 5.90222 8.64912 5.56454 9.56475C5.27513 10.3084 4.93204 11.4239 4.83813 13.4805C4.73654 15.7038 4.71546 16.3708 4.71546 22.0001C4.71546 27.6293 4.73654 28.2963 4.83813 30.5197C4.93204 32.5762 5.27513 33.6917 5.56454 34.4354C5.90188 35.3497 6.44046 36.1796 7.14004 36.86C7.82046 37.5596 8.65038 38.0982 9.56463 38.4355C10.3083 38.7249 11.4238 39.068 13.4804 39.1619C15.7037 39.2635 16.3688 39.2846 22 39.2846C27.6311 39.2846 28.2962 39.2635 30.5195 39.1619C32.5761 39.068 33.6916 38.7249 34.4353 38.4355C35.4185 38.0522 36.122 37.5979 36.8599 36.86C37.5595 36.1796 38.098 35.3497 38.4354 34.4354C38.7248 33.6917 39.0679 32.5762 39.1618 30.5197C39.2634 28.2963 39.2845 27.6293 39.2845 22.0001C39.2845 16.3708 39.2634 15.7038 39.1618 13.4805C39.0679 11.4239 38.7248 10.3084 38.4354 9.56475C38.052 8.5815 37.5978 7.87808 36.8599 7.14016C36.1793 6.44072 35.3509 5.9024 34.4353 5.56466C33.6916 5.27525 32.5761 4.93216 30.5195 4.83825ZM19.307 28.4995C20.811 29.1255 22.4856 29.21 24.0449 28.7385C25.6042 28.2671 26.9515 27.2688 27.8565 25.9144C28.7616 24.5599 29.1684 22.9332 29.0074 21.3122C28.8464 19.6911 28.1276 18.1763 26.9737 17.0263C26.2382 16.2912 25.3488 15.7284 24.3696 15.3783C23.3904 15.0282 22.3458 14.8995 21.3109 15.0016C20.276 15.1037 19.2767 15.4339 18.3847 15.9686C17.4928 16.5032 16.7306 17.229 16.1528 18.0936C15.575 18.9583 15.1962 19.9402 15.0434 20.9688C14.8907 21.9975 14.968 23.0471 15.2697 24.0423C15.5713 25.0375 16.0899 25.9534 16.788 26.7241C17.4861 27.4948 18.3465 28.1012 19.307 28.4995ZM14.3371 14.3372C15.3434 13.3309 16.5381 12.5327 17.8529 11.9881C19.1677 11.4435 20.5768 11.1632 22 11.1632C23.4231 11.1632 24.8323 11.4435 26.1471 11.9881C27.4618 12.5327 28.6565 13.3309 29.6628 14.3372C30.6691 15.3435 31.4673 16.5382 32.0119 17.853C32.5565 19.1678 32.8368 20.577 32.8368 22.0001C32.8368 23.4232 32.5565 24.8324 32.0119 26.1472C31.4673 27.462 30.6691 28.6566 29.6628 29.6629C27.6305 31.6952 24.8741 32.837 22 32.837C19.1258 32.837 16.3694 31.6952 14.3371 29.6629C12.3048 27.6306 11.1631 24.8742 11.1631 22.0001C11.1631 19.126 12.3048 16.3696 14.3371 14.3372ZM35.2403 12.7771C35.4897 12.5418 35.6893 12.259 35.8274 11.9452C35.9655 11.6314 36.0392 11.2931 36.0442 10.9504C36.0492 10.6076 35.9853 10.2673 35.8565 9.94963C35.7276 9.63197 35.5363 9.34339 35.2939 9.10099C35.0515 8.85859 34.7629 8.66728 34.4452 8.53841C34.1276 8.40953 33.7873 8.3457 33.4445 8.3507C33.1017 8.3557 32.7634 8.42942 32.4497 8.5675C32.1359 8.70558 31.853 8.90521 31.6178 9.15458C31.1603 9.63955 30.9098 10.2837 30.9196 10.9504C30.9293 11.617 31.1984 12.2536 31.6698 12.725C32.1413 13.1965 32.7779 13.4656 33.4445 13.4753C34.1111 13.485 34.7553 13.2346 35.2403 12.7771Z" fill="black"/>
</svg>
