<svg width="26" height="52" viewBox="0 0 26 52" fill="none" xmlns="http://www.w3.org/2000/svg">
<path d="M22.1667 51.0832C23.004 51.0848 23.8154 50.7933 24.46 50.259C24.8229 49.9582 25.1228 49.5888 25.3427 49.1719C25.5625 48.755 25.6979 48.2988 25.7412 47.8294C25.7845 47.3601 25.7347 46.8868 25.5948 46.4368C25.4549 45.9867 25.2276 45.5686 24.9259 45.2065L8.87254 25.9999L24.3525 6.75737C24.6502 6.39084 24.8725 5.96909 25.0066 5.51638C25.1407 5.06366 25.1841 4.5889 25.1341 4.11938C25.0842 3.64986 24.9419 3.19485 24.7156 2.78048C24.4892 2.36612 24.1831 2.00057 23.815 1.70487C23.4443 1.37865 23.0101 1.1326 22.5398 0.982135C22.0694 0.831674 21.573 0.780061 21.0818 0.830532C20.5905 0.881002 20.115 1.03247 19.6851 1.27543C19.2551 1.51838 18.8801 1.84758 18.5834 2.24237L1.27587 23.7424C0.748829 24.3835 0.460709 25.1878 0.460709 26.0178C0.460709 26.8478 0.748829 27.652 1.27587 28.2932L19.1925 49.7932C19.552 50.2269 20.0086 50.5696 20.5254 50.7938C21.0422 51.0179 21.6045 51.1171 22.1667 51.0832Z" fill="black"/>
</svg>
