<svg width="26" height="52" viewBox="0 0 26 52" fill="none" xmlns="http://www.w3.org/2000/svg">
<path d="M3.83332 51.0832C2.99607 51.0848 2.18467 50.7933 1.53999 50.259C1.17715 49.9582 0.877215 49.5888 0.65737 49.1719C0.437525 48.755 0.302089 48.2988 0.258817 47.8294C0.215545 47.3601 0.265289 46.8868 0.405198 46.4368C0.545108 45.9867 0.772431 45.5686 1.07415 45.2065L17.1275 25.9999L1.64749 6.75737C1.34984 6.39084 1.12756 5.96909 0.993427 5.51638C0.859297 5.06366 0.815961 4.5889 0.865909 4.11938C0.915858 3.64986 1.05811 3.19485 1.28448 2.78048C1.51085 2.36612 1.81689 2.00057 2.18499 1.70487C2.55574 1.37865 2.98992 1.1326 3.46028 0.982135C3.93063 0.831674 4.42702 0.780061 4.91827 0.830532C5.40952 0.881002 5.88503 1.03247 6.31497 1.27543C6.7449 1.51838 7.11998 1.84758 7.41666 2.24237L24.7242 23.7424C25.2512 24.3835 25.5393 25.1878 25.5393 26.0178C25.5393 26.8478 25.2512 27.652 24.7242 28.2932L6.80749 49.7932C6.44802 50.2269 5.99138 50.5696 5.47463 50.7938C4.95788 51.0179 4.39557 51.1171 3.83332 51.0832Z" fill="black"/>
</svg>
